<?xml version="1.0" standalone="no"?>
<!DOCTYPE svg PUBLIC "-//W3C//DTD SVG 20010904//EN"
 "http://www.w3.org/TR/2001/REC-SVG-20010904/DTD/svg10.dtd">
<svg version="1.0" xmlns="http://www.w3.org/2000/svg"
 width="150.000000pt" height="150.000000pt" viewBox="0 0 150.000000 150.000000"
 preserveAspectRatio="xMidYMid meet">

<g transform="translate(0.000000,150.000000) scale(0.100000,-0.100000)"
fill="#000000" stroke="none">
<path d="M0 1289 c0 -206 1 -211 20 -206 16 4 18 2 10 -13 -9 -17 -8 -18 20
-3 17 8 30 21 30 29 0 8 7 17 15 20 19 8 19 34 0 34 -8 0 -15 6 -15 13 0 9 9
12 28 10 22 -3 31 2 49 29 26 39 79 98 88 98 13 0 85 67 85 80 0 5 11 10 25
10 14 0 28 7 31 15 4 8 14 15 24 15 10 0 23 7 30 15 7 8 28 15 47 15 30 0 35
3 30 20 -4 17 -2 19 21 13 36 -10 92 -7 105 6 8 8 -12 11 -69 11 -63 0 -90 -5
-132 -25 -66 -31 -80 -31 -84 -2 -3 22 -5 22 -180 25 l-178 2 0 -211z m280
129 c0 -4 10 -8 23 -9 21 -1 21 -1 -3 -9 -14 -4 -21 -8 -17 -9 12 -1 -20 -31
-33 -31 -7 0 -10 8 -7 20 3 11 1 20 -4 20 -5 0 -9 7 -9 15 0 10 9 14 25 13 14
-1 25 -6 25 -10z m-63 -103 c0 -8 -4 -12 -9 -9 -5 3 -6 10 -3 15 9 13 12 11
12 -6z m-35 -37 c-7 -7 -12 -8 -12 -2 0 14 12 26 19 19 2 -3 -1 -11 -7 -17z
m-63 -61 c-27 -29 -31 -30 -40 -14 -6 9 -14 15 -20 12 -5 -4 -9 -1 -9 4 0 6
13 11 29 11 16 0 34 7 41 15 7 8 16 13 20 10 5 -3 -5 -20 -21 -38z"/>
<path d="M888 1487 c24 -7 36 -7 44 1 9 9 1 12 -32 11 l-45 -1 33 -11z"/>
<path d="M1178 1493 c19 -3 32 -10 32 -19 0 -8 7 -14 15 -14 8 0 15 -7 15 -15
0 -8 7 -15 15 -15 8 0 15 -7 15 -15 0 -10 10 -15 30 -15 20 0 30 -5 30 -15 0
-8 7 -15 15 -15 8 0 15 -7 15 -15 0 -8 7 -15 15 -15 8 0 15 -7 15 -15 0 -8 7
-15 15 -15 10 0 15 -10 15 -26 0 -24 -3 -26 -34 -22 -19 2 -33 1 -30 -3 2 -4
-2 -10 -8 -13 -7 -3 14 -3 46 1 56 5 59 5 54 -14 -4 -16 -1 -19 13 -16 13 4
19 0 19 -11 0 -9 5 -16 10 -16 6 0 10 58 10 155 l0 155 -177 -2 c-98 0 -163
-3 -145 -5z"/>
<path d="M1102 1475 c-20 -10 -21 -13 -7 -19 30 -11 45 -6 45 14 0 23 -5 23
-38 5z"/>
<path d="M615 1440 c-16 -5 -52 -14 -78 -20 -27 -7 -51 -18 -54 -26 -3 -8 -19
-14 -39 -14 -19 0 -34 -4 -34 -9 0 -5 -10 -13 -22 -17 -76 -23 -253 -217 -273
-297 -6 -21 -4 -27 9 -27 24 0 19 -24 -6 -35 -12 -6 -30 -24 -40 -41 -15 -26
-16 -36 -7 -63 9 -24 9 -35 0 -44 -7 -7 -11 -55 -11 -128 0 -91 3 -119 15
-129 8 -7 15 -27 15 -45 0 -41 56 -153 92 -183 15 -13 28 -31 28 -40 0 -20 72
-82 93 -82 8 0 17 -7 21 -15 3 -8 17 -15 31 -15 17 0 29 -8 37 -25 12 -28 45
-40 81 -32 12 4 29 2 37 -3 11 -7 23 0 47 28 32 37 32 37 33 11 0 -15 -6 -32
-14 -39 -32 -26 9 -70 66 -70 42 0 48 12 21 42 -13 15 -15 23 -6 37 9 14 1 27
-52 79 -35 34 -70 62 -79 62 -20 0 -56 -30 -56 -48 0 -17 -30 -62 -41 -62 -5
0 -9 15 -9 33 0 26 8 41 35 66 40 36 42 46 18 74 -13 13 -18 36 -18 72 0 46 4
58 30 85 41 44 100 70 155 70 25 0 51 5 58 12 15 15 16 67 2 103 -6 15 -7 32
-3 38 4 6 8 121 10 256 3 280 6 291 72 291 31 0 44 -6 65 -31 14 -17 26 -36
26 -42 0 -7 9 -18 20 -25 11 -7 20 -19 20 -27 0 -8 3 -15 8 -15 4 0 23 -15 42
-33 19 -17 52 -41 73 -51 47 -24 64 -51 41 -64 -17 -9 -66 2 -171 39 -33 11
-55 14 -58 8 -6 -8 2 -189 11 -269 1 -14 3 -28 3 -32 1 -5 7 -8 15 -8 16 0 29
-27 20 -42 -5 -7 -12 -5 -20 6 -17 23 -27 4 -14 -29 7 -20 6 -34 -5 -56 -10
-19 -14 -45 -11 -72 3 -23 5 -46 5 -50 2 -24 20 9 25 48 5 31 12 45 23 45 13
0 13 -3 3 -15 -11 -13 -10 -20 1 -41 15 -29 5 -53 -30 -69 -12 -5 -24 -21 -27
-35 -15 -68 -62 -130 -99 -130 -8 0 -20 -9 -28 -21 -11 -15 -23 -20 -47 -17
-22 2 -35 -2 -38 -11 -3 -10 2 -12 22 -7 28 7 32 2 40 -49 2 -16 5 -32 5 -34
1 -2 7 2 15 8 10 9 17 6 30 -13 9 -14 16 -32 16 -39 0 -31 35 -47 84 -41 49 7
66 24 47 47 -8 10 -7 17 1 25 19 19 26 14 30 -15 4 -36 27 -40 81 -14 24 12
47 21 52 21 12 0 55 49 55 63 0 7 -14 24 -32 38 -28 23 -30 29 -19 43 15 18
47 21 56 6 3 -6 18 -7 31 -4 14 4 36 1 50 -7 21 -11 27 -10 42 4 14 14 14 21
4 37 -6 11 -12 27 -12 35 0 8 -12 34 -26 56 -30 49 -26 69 16 69 29 0 40 13
20 25 -17 11 -11 25 15 35 l26 10 -22 30 c-13 16 -21 32 -18 34 2 3 23 2 47
-1 32 -4 42 -10 42 -24 0 -10 -9 -23 -20 -29 -12 -6 -20 -21 -20 -36 0 -28 26
-84 39 -84 17 0 33 30 29 54 -4 17 3 32 23 50 37 35 41 60 39 280 0 62 -6 111
-14 130 -8 17 -18 42 -21 55 -9 30 -75 140 -120 198 -39 51 -152 141 -215 171
-109 52 -162 64 -285 68 -66 2 -133 -1 -150 -6z m-18 -76 c2 -6 -8 -16 -22
-22 -28 -13 -30 -10 -14 19 10 20 30 22 36 3z m-89 -28 c3 -12 -1 -17 -10 -14
-7 3 -15 13 -16 22 -3 12 1 17 10 14 7 -3 15 -13 16 -22z m9 -116 c15 0 23 -5
21 -12 -3 -7 -13 -13 -24 -13 -10 0 -22 -8 -26 -18 -6 -14 -12 -16 -28 -7 -36
19 -20 66 18 54 8 -2 25 -4 39 -4z m-167 -30 c0 -5 -4 -10 -10 -10 -5 0 -10 5
-10 10 0 6 5 10 10 10 6 0 10 -4 10 -10z m156 -91 c40 -25 43 -42 9 -57 -21
-10 -27 -8 -40 11 -15 21 -21 67 -9 67 4 0 22 -9 40 -21z m-71 -38 c10 -17
-12 -21 -25 -6 -10 12 -10 15 3 15 9 0 18 -4 22 -9z m-76 -37 c11 -25 12 -26
37 -9 19 12 29 14 39 5 8 -6 24 -9 37 -5 l23 6 -23 -18 c-22 -18 -22 -20 -8
-48 9 -17 16 -35 16 -42 0 -6 8 -14 18 -18 25 -7 41 -66 37 -139 -4 -65 -16
-80 -55 -69 -14 4 -37 7 -52 7 -16 1 -28 4 -28 8 0 4 -12 14 -27 22 -16 8 -41
37 -58 65 -16 27 -38 52 -47 54 -29 8 -31 34 -7 74 14 23 24 32 27 23 3 -8 0
-16 -6 -18 -19 -6 -14 -36 8 -55 27 -23 48 -22 27 1 -22 25 -22 52 1 52 10 0
27 6 37 14 17 13 17 15 -9 49 -16 21 -26 44 -22 52 8 22 21 18 35 -11z m211
-54 c0 -12 -28 -25 -36 -17 -9 9 6 27 22 27 8 0 14 -5 14 -10z m-365 -106 c0
-23 -4 -28 -20 -26 -28 5 -30 9 -16 38 15 33 36 26 36 -12z m749 -80 c16 -42
-3 -57 -39 -30 -11 8 -16 19 -12 30 8 21 43 21 51 0z m-689 -44 c3 -5 -1 -10
-10 -10 -9 0 -13 5 -10 10 3 6 8 10 10 10 2 0 7 -4 10 -10z m335 -11 c0 -5 -4
-9 -10 -9 -5 0 -10 7 -10 16 0 8 5 12 10 9 6 -3 10 -10 10 -16z m452 4 c23
-21 23 -33 -1 -33 -17 0 -31 18 -31 41 0 14 11 11 32 -8z m101 -22 c28 -31 35
-51 15 -51 -15 0 -69 61 -62 71 9 14 18 10 47 -20z m117 -5 c0 -2 -8 -10 -17
-17 -16 -13 -17 -12 -4 4 13 16 21 21 21 13z m-350 -51 c10 -12 10 -15 -4 -15
-9 0 -16 7 -16 15 0 8 2 15 4 15 2 0 9 -7 16 -15z m-381 -4 c14 -9 9 -41 -7
-41 -17 0 -45 27 -38 38 9 14 26 15 45 3z m-94 -11 c3 -5 1 -10 -4 -10 -6 0
-11 5 -11 10 0 6 2 10 4 10 3 0 8 -4 11 -10z m735 -68 c0 -10 -12 -22 -30 -29
-37 -14 -49 0 -24 28 22 24 54 25 54 1z m-200 -22 c0 -5 -4 -10 -10 -10 -5 0
-10 5 -10 10 0 6 5 10 10 10 6 0 10 -4 10 -10z m-53 -210 c10 -11 25 -20 33
-20 21 0 60 -36 60 -55 0 -22 -32 -18 -61 8 -14 12 -34 27 -45 33 -21 12 -32
54 -15 54 6 0 19 -9 28 -20z m-57 -49 c0 -6 -4 -13 -10 -16 -5 -3 -10 1 -10 9
0 9 5 16 10 16 6 0 10 -4 10 -9z m120 -96 c0 -16 -35 -21 -44 -6 -8 12 4 21
26 21 10 0 18 -7 18 -15z"/>
<path d="M340 836 c0 -3 8 -15 17 -26 18 -20 33 -26 33 -12 -1 8 -50 46 -50
38z"/>
<path d="M1220 1420 c0 -5 5 -10 11 -10 5 0 7 5 4 10 -3 6 -8 10 -11 10 -2 0
-4 -4 -4 -10z"/>
<path d="M1188 1403 c7 -3 16 -2 19 1 4 3 -2 6 -13 5 -11 0 -14 -3 -6 -6z"/>
<path d="M1217 1394 c-8 -8 17 -34 33 -34 17 0 7 34 -11 38 -8 1 -18 0 -22 -4z"/>
<path d="M1436 1123 c-6 -14 -5 -15 5 -6 7 7 10 15 7 18 -3 3 -9 -2 -12 -12z"/>
<path d="M1466 1055 c-3 -8 -1 -15 4 -15 6 0 10 7 10 15 0 8 -2 15 -4 15 -2 0
-6 -7 -10 -15z"/>
<path d="M23 1045 c-26 -11 -30 -30 -9 -38 17 -7 39 16 34 35 -2 10 -9 10 -25
3z"/>
<path d="M7 964 c-10 -11 -9 -64 2 -64 6 0 12 4 15 8 8 13 -8 65 -17 56z"/>
<path d="M0 656 c0 -9 5 -16 10 -16 6 0 10 4 10 9 0 6 -4 13 -10 16 -5 3 -10
-1 -10 -9z"/>
<path d="M0 556 c0 -9 5 -16 10 -16 6 0 10 4 10 9 0 6 -4 13 -10 16 -5 3 -10
-1 -10 -9z"/>
<path d="M0 456 c0 -36 4 -46 16 -46 15 0 15 -2 0 -25 -22 -33 -21 -35 14 -35
23 0 30 5 30 19 0 10 -7 24 -15 31 -8 7 -15 22 -15 34 0 17 2 18 10 6 8 -11
10 -6 8 20 -2 28 -8 36 -25 38 -21 3 -23 -1 -23 -42z"/>
<path d="M1250 420 c-8 -5 -12 -12 -8 -15 9 -9 48 4 48 16 0 12 -21 11 -40 -1z"/>
<path d="M0 155 l0 -155 178 2 c97 0 162 3 145 5 -20 3 -33 10 -33 19 0 8 -7
14 -15 14 -18 0 -20 26 -3 33 7 3 -6 2 -29 0 -35 -5 -43 -3 -43 11 0 9 -7 16
-15 16 -8 0 -15 7 -15 15 0 8 -7 15 -15 15 -8 0 -15 7 -15 15 0 8 -7 15 -15
15 -8 0 -15 7 -15 15 0 8 -7 15 -15 15 -8 0 -15 7 -15 15 0 8 -7 15 -15 15 -8
0 -15 9 -15 20 0 15 7 20 28 20 15 0 33 -5 39 -11 7 -7 20 -8 30 -4 16 6 16 8
-5 16 -13 5 -21 13 -18 18 3 5 -1 14 -9 21 -12 10 -18 10 -31 -1 -24 -20 -64
-23 -64 -4 0 8 -4 15 -10 15 -6 0 -10 -58 -10 -155z"/>
<path d="M1480 295 c0 -8 -7 -15 -15 -15 -8 0 -15 -7 -15 -15 0 -8 -7 -15 -15
-15 -10 0 -15 -10 -15 -30 0 -20 -5 -30 -15 -30 -8 0 -15 -7 -15 -15 0 -8 -7
-15 -15 -15 -8 0 -15 -7 -15 -15 0 -8 -7 -15 -15 -15 -8 0 -15 -7 -15 -15 0
-8 -7 -15 -15 -15 -8 0 -15 -7 -15 -15 0 -10 -10 -15 -30 -15 -20 0 -30 -5
-30 -15 0 -8 -7 -15 -15 -15 -8 0 -15 -6 -15 -14 0 -9 -13 -16 -32 -19 -18 -2
47 -5 145 -5 l177 -2 0 155 c0 97 -4 155 -10 155 -5 0 -10 -7 -10 -15z"/>
<path d="M242 128 c3 -7 15 -15 28 -16 21 -4 22 -2 7 12 -19 19 -40 21 -35 4z"/>
<path d="M438 23 c7 -3 16 -2 19 1 4 3 -2 6 -13 5 -11 0 -14 -3 -6 -6z"/>
</g>
</svg>
